{
  "accessors": [
    {
      "bufferView": 2,
      "componentType": 5126,
      "count": 13060,
      "max": [
        34.728473663330078,
        108.73980712890625,
        41.170215606689453
      ],
      "min": [
        -34.728473663330078,
        0.004451751708984375,
        -53.928997039794922
      ],
      "type": "VEC3"
    },
    {
      "bufferView": 2,
      "byteOffset": 156720,
      "componentType": 5126,
      "count": 13060,
      "max": [
        1,
        1,
        1
      ],
      "min": [
        -1,
        -1,
        -1
      ],
      "type": "VEC3"
    },
    {
      "bufferView": 3,
      "componentType": 5126,
      "count": 13060,
      "max": [
        1,
        1,
        1,
        1
      ],
      "min": [
        -1,
        -1,
        -1,
        -1
      ],
      "type": "VEC4"
    },
    {
      "bufferView": 1,
      "componentType": 5126,
      "count": 13060,
      "max": [
        0.99922692775726318,
        0.9984900951385498
      ],
      "min": [
        0.0019721947610378265,
        0.0017635226249694824
      ],
      "type": "VEC2"
    },
    {
      "bufferView": 1,
      "byteOffset": 104480,
      "componentType": 5126,
      "count": 13060,
      "max": [
        0.99922692775726318,
        0.9984900951385498
      ],
      "min": [
        0.0019721947610378265,
        0.0017635226249694824
      ],
      "type": "VEC2"
    },
    {
      "bufferView": 1,
      "byteOffset": 208960,
      "componentType": 5126,
      "count": 13060,
      "max": [
        0.99922692775726318,
        0.9984900951385498
      ],
      "min": [
        0.0019721947610378265,
        0.0017635226249694824
      ],
      "type": "VEC2"
    },
    {
      "bufferView": 1,
      "byteOffset": 313440,
      "componentType": 5126,
      "count": 13060,
      "max": [
        0.99922692775726318,
        0.9984900951385498
      ],
      "min": [
        0.0019721947610378265,
        0.0017635226249694824
      ],
      "type": "VEC2"
    },
    {
      "bufferView": 1,
      "byteOffset": 417920,
      "componentType": 5126,
      "count": 13060,
      "max": [
        0.99922692775726318,
        0.9984900951385498
      ],
      "min": [
        0.0019721947610378265,
        0.0017635226249694824
      ],
      "type": "VEC2"
    },
    {
      "bufferView": 0,
      "componentType": 5125,
      "count": 66987,
      "max": [
        13059
      ],
      "min": [
        0
      ],
      "type": "SCALAR"
    }
  ],
  "asset": {
    "extras": {
      "author": "D.art (https://sketchfab.com/D.art)",
      "license": "CC-BY-NC-4.0 (http://creativecommons.org/licenses/by-nc/4.0/)",
      "source": "https://sketchfab.com/3d-models/stone-lion-bf38a87d03834065a5f25c29a1cd7273",
      "title": "Stone lion"
    },
    "generator": "Sketchfab-9.94.0",
    "version": "2.0"
  },
  "bufferViews": [
    {
      "buffer": 0,
      "byteLength": 267948,
      "byteOffset": 0,
      "name": "floatBufferViews",
      "target": 34963
    },
    {
      "buffer": 0,
      "byteLength": 522400,
      "byteOffset": 267948,
      "byteStride": 8,
      "name": "floatBufferViews",
      "target": 34962
    },
    {
      "buffer": 0,
      "byteLength": 313440,
      "byteOffset": 790348,
      "byteStride": 12,
      "name": "floatBufferViews",
      "target": 34962
    },
    {
      "buffer": 0,
      "byteLength": 208960,
      "byteOffset": 1103788,
      "byteStride": 16,
      "name": "floatBufferViews",
      "target": 34962
    }
  ],
  "buffers": [
    {
      "byteLength": 1312748,
      "uri": "scene.bin"
    }
  ],
  "images": [
    {
      "uri": "textures/material_baseColor.png"
    },
    {
      "uri": "textures/material_metallicRoughness.png"
    },
    {
      "uri": "textures/material_normal.png"
    }
  ],
  "materials": [
    {
      "doubleSided": false,
      "emissiveFactor": [
        0,
        0,
        0
      ],
      "name": "material",
      "normalTexture": {
        "index": 2,
        "scale": 1,
        "texCoord": 0
      },
      "occlusionTexture": {
        "index": 1,
        "strength": 1,
        "texCoord": 0
      },
      "pbrMetallicRoughness": {
        "baseColorFactor": [
          1,
          1,
          1,
          1
        ],
        "baseColorTexture": {
          "index": 0,
          "texCoord": 0
        },
        "metallicFactor": 1,
        "metallicRoughnessTexture": {
          "index": 1,
          "texCoord": 0
        },
        "roughnessFactor": 1
      }
    }
  ],
  "meshes": [
    {
      "primitives": [
        {
          "attributes": {
            "NORMAL": 1,
            "POSITION": 0,
            "TANGENT": 2,
            "TEXCOORD_0": 3,
            "TEXCOORD_1": 4,
            "TEXCOORD_2": 5,
            "TEXCOORD_3": 6,
            "TEXCOORD_4": 7
          },
          "indices": 8,
          "material": 0,
          "mode": 4
        }
      ]
    }
  ],
  "nodes": [
    {
      "children": [
        1
      ],
      "name": "RootNode (gltf orientation matrix)",
      "rotation": [
        -0.70710678118654746,
        -0,
        -0,
        0.70710678118654757
      ]
    },
    {
      "children": [
        2
      ],
      "name": "RootNode (model correction matrix)"
    },
    {
      "children": [
        3
      ],
      "name": "root"
    },
    {
      "children": [
        4
      ],
      "matrix": [
        1,
        0,
        0,
        0,
        0,
        2.2204460492503131e-16,
        1,
        0,
        0,
        -1,
        2.2204460492503131e-16,
        0,
        0,
        0,
        0,
        1
      ],
      "name": "GLTF_SceneRootNode"
    },
    {
      "children": [
        5
      ],
      "name": "root_0"
    },
    {
      "children": [
        6
      ],
      "name": "ssz_1"
    },
    {
      "children": [
        7
      ],
      "name": "ssz_2"
    },
    {
      "mesh": 0,
      "name": ""
    }
  ],
  "samplers": [
    {
      "magFilter": 9729,
      "minFilter": 9987,
      "wrapS": 10497,
      "wrapT": 10497
    }
  ],
  "scene": 0,
  "scenes": [
    {
      "name": "OSG_Scene",
      "nodes": [
        0
      ]
    }
  ],
  "textures": [
    {
      "sampler": 0,
      "source": 0
    },
    {
      "sampler": 0,
      "source": 1
    },
    {
      "sampler": 0,
      "source": 2
    }
  ]
}

